<svg width="573" height="5553" viewBox="0 0 573 5553" fill="none" xmlns="http://www.w3.org/2000/svg">
<path d="M49.6879 225.253L158.215 88.3449C202.203 32.8531 269.134 0.5 339.946 0.5C468.023 0.5 571.849 104.327 571.849 232.403V5308.76C571.849 5443.1 462.945 5552 328.605 5552C264.092 5552 202.222 5526.37 156.605 5480.76L75.8494 5400C-8.09792 5316.05 -8.09792 5179.95 75.8494 5096C159.797 5012.05 159.797 4875.95 75.8494 4792C-8.09792 4708.05 -8.09792 4571.95 75.8494 4488C159.797 4404.05 159.797 4267.95 75.8494 4184C-8.09792 4100.05 -8.09792 3963.95 75.8494 3880C159.797 3796.05 159.797 3659.95 75.8494 3576C-8.09792 3492.05 -8.09792 3355.95 75.8494 3272C159.797 3188.05 159.797 3051.95 75.8494 2968C-8.09792 2884.05 -8.09792 2747.95 75.8494 2664C159.797 2580.05 159.797 2443.95 75.8494 2360C-8.09792 2276.05 -8.09792 2139.95 75.8494 2056C159.797 1972.05 159.797 1835.95 75.8494 1752C-8.09792 1668.05 -8.09792 1531.95 75.8494 1448C159.797 1364.05 159.797 1227.95 75.8494 1144C-8.09792 1060.05 -8.09792 923.947 75.8494 840C159.797 756.053 159.797 619.947 75.8494 536L67.0902 527.241C-14.5503 445.6 -22.034 315.731 49.6879 225.253Z" fill="black" stroke="black"/>
</svg>
